<svg width="20" height="20" viewBox="0 0 20 20" fill="none" xmlns="http://www.w3.org/2000/svg">
<rect width="20" height="20" fill="#E5E5E5"/>
<g id="eLearning Landing Page 8" clip-path="url(#clip0_0_1)">
<rect width="1440" height="4493" transform="translate(-1192 -4303)" fill="white"/>
<g id="Footer-eLearning Landing Page 8">
<g id="Footer">
<rect id="Base" x="-1192" y="-304" width="1440" height="494" fill="white"/>
<g id="Social">
<g id="Linkedin">
<g id="Group 113">
<circle id="Ellipse 30" cx="10" cy="10" r="10" fill="white"/>
<g id="Group 110">
<path id="Vector" d="M6.22487 7.44973C6.90134 7.44973 7.44973 6.90134 7.44973 6.22487C7.44973 5.54839 6.90134 5 6.22487 5C5.54839 5 5 5.54839 5 6.22487C5 6.90134 5.54839 7.44973 6.22487 7.44973Z" fill="#0B120B"/>
<path id="Vector_2" d="M8.60648 8.3779V15.1734H10.7164V11.8129C10.7164 10.9262 10.8832 10.0674 11.9827 10.0674C13.0671 10.0674 13.0805 11.0812 13.0805 11.8689V15.174H15.1915V11.4473C15.1915 9.61677 14.7974 8.20996 12.6578 8.20996C11.6306 8.20996 10.942 8.77369 10.6604 9.30719H10.6319V8.3779H8.60648ZM5.16812 8.3779H7.28141V15.1734H5.16812V8.3779Z" fill="#0B120B"/>
</g>
</g>
</g>
</g>
</g>
</g>
</g>
<defs>
<clipPath id="clip0_0_1">
<rect width="1440" height="4493" fill="white" transform="translate(-1192 -4303)"/>
</clipPath>
</defs>
</svg>
